<svg xmlns="http://www.w3.org/2000/svg" viewBox="0 0 600 976"><path d="M342.87 307.78q.047 0 .097.004c.105.003.162.052.125.1-.05.061-.249.1-.402.1-.111 0-.2-.02-.193-.068.01-.082.168-.136.373-.136m-24.402 30.671h.03q2.258.076 3.832 1.673.585.627.945 1.341h-.002c.273.75.354 1.221.436 2.087.062.576.027 1.234-.08 1.9h-.002q-.388 1.316-1.449 2.38-1.644 1.525-3.845 1.52h-.017q-2.259-.07-3.837-1.662-1.532-1.634-1.53-3.865.047-2.217 1.662-3.844 1.646-1.535 3.857-1.53zm70.171 18.077c.99.002 1.696.183 2.509.564.674.336 1.42.6 1.64.6h.001c.218 0 .82.216 1.35.456.531.264 1.351.528 1.858.624.916.167 3.065 1.948 3.066 2.551 0 .145-.216.53-.48.869-.338.434-.482.99-.48 1.905.002 1.013-.118 1.4-.576 1.906-.313.338-.625.87-.697 1.159-.575 2.412-.886 4.028-.885 4.679 0 .41-.12.796-.264.844-.24.073-.505.893-.935 3.016a10 10 0 0 1-.72 2.05c-.265.555-.48 1.207-.48 1.448s-.096.434-.217.434c-.217 0-.504 1.062-.599 2.388-.062.787-.486 1.187-1.091 1.186-.545-.001-1.237-.327-1.946-.988-.46-.433-1.232-.939-1.69-1.107-1.062-.432-1.448-.89-1.45-1.757 0-.362-.097-.675-.217-.675-.121 0-.29-.41-.412-.916-.243-1.157-.296-19.506-.057-20.35.12-.506.337-.675.964-.749a14 14 0 0 1 1.808-.137zm-17.622 136.09q.019.002.044.131c.097.603.315 1.47.46 1.928.146.482.27 2.363.249 4.34.004 2.635-.129 4.18-.299 4.179-.079 0-.166-.333-.25-1.044-.228-1.793-.381-9.509-.206-9.534zm-29.625-185.76c-.21 0-.352.04-.573.118-.662.234-1.232.574-1.253.74-.018.146.28.289.746.368.249.031.193.056-.259.126-.697.093-1.95.496-2.76.891-.808.385-3.366 2.536-3.818 3.197-.39.585-1.004 1.965-1.207 2.742-.524 2.003-1.073 3.36-1.732 4.332-.142.204-.795.788-1.459 1.286-2.586 1.957-3.146 2.468-3.432 3.065-.242.508-.132 1.06.267 1.416.533.46 1.618.685 2.917.688.509.001 1.05-.032 1.605-.099h.001c.072.672.254 1.308.554 1.823.435.723.774 1.976.897 3.302.172 2.001 1.214 5.207 2.205 6.845.556.94 1.04 1.782 1.04 1.879 0 .265 1.787 1.853 2.535 2.214.386.216 1.11.673 1.57 1.034.458.361 1.037.722 1.278.794.217.096.41.264.41.385.001.193-3.348 1.958-3.71 1.959-.072 0-.722.266-1.445.605s-1.422.605-1.542.605c-.386 0-.915 1.014-1.25 2.365-.36 1.375-.116 3.328.586 4.774.266.53.291 1.205.15 2.917-.095 1.206-.262 2.315-.335 2.46-.096.145-.166 1.567-.163 3.159.027 2.266-.044 2.942-.309 3.038-.193.073-.481.483-.625.893-.169.435-.385.99-.48 1.255-.673 1.713-1.44 4.656-1.439 5.572.001.351-.033.532-.203.532-.18 0-.514-.205-1.123-.626-1.062-.722-1.932-2.191-2.635-4.505-.267-.795-.654-2-.897-2.699-.29-.771-.388-1.542-.292-2.121.095-.555-.05-1.423-.366-2.483-.29-.892-.63-2.049-.752-2.579-.194-.675-.556-1.205-1.28-1.782a13.4 13.4 0 0 1-1.763-1.734c-.387-.505-.846-.914-.99-.938h-.003c-.505-.001-.794-.604-1.013-2.024a12 12 0 0 1-.132-.918h-.001q2.819-.195 4.925-2.163 2.308-2.282 2.413-5.515.017-3.236-2.197-5.603-2.268-2.291-5.508-2.4h-.005q-3.256.004-5.569 2.175-2.313 2.28-2.423 5.512-.022 3.236 2.188 5.606 1.75 1.776 4.087 2.246h-.001c.21.318.245.705.246 1.618.002 1.109-.118 1.664-.478 2.146-.265.362-.625 1.424-.816 2.365-.312 1.52-.382 2.508-.353 5.739 0 .386.098.892.243 1.133.338.65 2.023 1.658 2.748 1.66h.011c.524 0 .647.202 1.347 2.456.412 1.374 1.26 3.832 1.865 5.47 1.065 2.94 1.09 3.037.827 4.364-.383 1.857-.358 2.267.296 4.34.992 3.199 1.764 4.332 2.99 4.335h.01c.7.001 1.975.72 1.976 1.106.002 1.18 4.117 3.7 6.05 3.704h.008c.916-.002 1.133-.147 2.962-2.007 3.01-2.994 4.692-6.01 5.915-10.546.168-.603.384-1.302.48-1.568.12-.265.504-1.254.864-2.195l.673-1.713.99 1.01c.531.53 1.497 1.421 2.173 1.926.652.53 1.4 1.131 1.642 1.324.265.192.941.794 1.545 1.3 1.086.962 1.086.962.968 2.289-.118 1.35-.286 2.339-1.003 5.933a192 192 0 0 0-.812 4.824c-.263 1.591-.646 3.641-.861 4.582-.48 2.026-1.05 7.26-1.07 9.815.003 1.35.148 2.146.512 3.014.46 1.06.509 1.88.738 9.716.153 4.701.353 9.74.476 11.21.123 1.447.296 3.954.395 5.546.173 2.912.439 3.733 1.231 3.735h.006c.168 0 .312.096.312.24 0 .12.145.24.337.241h.001c.194 0 .508.53.726 1.277.34 1.085 1.138 3.157 1.84 4.868.121.265.267.964.34 1.566.391 3.375 1.85 10.63 2.31 11.666.774 1.663.945 3.23.978 9.065.005 2.845.13 5.763.276 6.486.121.699.244 1.88.245 2.603.002 1.302.124 2.315 1 7.666.269 1.615.586 3.785.732 4.822a76 76 0 0 0 .463 3.254c1.509 8.533 1.783 14.344.873 17.962-.192.796-.6 2.485-.862 3.739l-.503 2.291-2.672 2.705c-1.493 1.497-2.937 3.187-3.225 3.767-.77 1.496-.96 3.449-.451 4.51.963 2.013 1.302 2.405 2.304 2.407h.017c.341 0 1.471.215 2.53.478 1.493.381 2.458.462 6.228.47h1.633c3.255-.006 6.27-.13 6.679-.252.82-.218 1.493-.774 1.493-1.184 0-.145.263-1.085.6-2.099.335-1.013.598-2.267.598-2.774-.001-.506.119-.988.24-1.06.144-.073.24-.411.24-.725-.001-.313.07-.627.19-.675l.008-.003c.094 0 .188 1.3.215 2.92.05 1.664.125 3.062.173 3.134.024.016.088.024.183.024.196 0 .52-.032.878-.098l.94-.146.114-4.268c.115-3.496.21-4.533.642-5.691.264-.772.648-1.593.841-1.81 1.06-1.159 1.75-6.175 1.097-7.862-.146-.362-.895-1.542-1.717-2.65l-1.45-2.023.117-2.604c.046-1.423.212-3.376.33-4.293.12-.94.405-3.376.643-5.426.214-2.05.5-4.558.642-5.547.12-.988.282-4.63.35-8.078.132-7.234.132-7.21-2.122-14.367a37.6 37.6 0 0 1-1.677-8.34c-.343-3.664-.346-5.376-.032-5.377.145 0 .24-.53.24-1.157-.004-1.76 1.172-5.62 1.966-6.417.217-.218.65-.387.988-.388 1.061-.001 1.325-.605 2.33-5.308.096-.458.36-1.471.576-2.243 1.366-4.921 4.457-17.223 4.456-17.778 0-.507 1.127-3.908 4.776-14.402l2.208-6.345-.677-1.229c-.363-.699-.895-1.493-1.185-1.806-.265-.29-.7-.988-.966-1.518-.242-.554-.532-.987-.629-.988-.12 0-.193-.168-.193-.385s-.194-.554-.412-.723c-.748-.577.216-1.061 2.12-1.064 2.774-.004 2.894-.053 4.82-2.154.24-.29.457-.651.456-.82 0-.145.217-.555.457-.869.284-.38.413-.51 1.114-.51.368.001.894.039 1.682.096q.693.044 1.21.046c1.605.003 2.045-.33 2.044-1.281 0-.29.12-.555.24-.555.145 0 .24-.555.239-1.23-.002-1.206.717-4.221 1.197-5.09.145-.241.24-.627.24-.892 0-.266.144-.628.312-.797.29-.29.792-2.605 1.724-8.152.286-1.64.358-1.906.72-2.268.385-.362.72-1.665 1.078-4.004.095-.724.31-1.833.478-2.46.456-1.81.211-3.955-.635-5.304-.387-.626-.821-1.156-.966-1.156s-.677-.36-1.207-.794c-.507-.433-1.328-.986-1.786-1.202-.459-.24-1.014-.505-1.207-.625-1.082-.575-1.47-.744-1.806-.745h-.005c-.192 0-.36-.12-.36-.24 0-.145-.169-.24-.36-.241h-.004c-.485-.001-2.05-.769-2.05-1.01 0-.096-.168-.191-.36-.192h-.004c-.193 0-.602-.12-.914-.288-.29-.144-.7-.336-.893-.432a77 77 0 0 1-1.52-.794c-.858-.498-1.48-.644-2.516-.647h-.119c-1.164-.002-1.436-.11-2.287-.84-.555-.456-1.181-.84-1.4-.841h-.001c-.218 0-.7-.193-1.036-.457-.362-.24-1.955-1.082-3.548-1.875-3.282-1.61-3.982-2.019-3.982-2.308 0-.121-.314-.458-.676-.77-.363-.314-.821-.82-.99-1.157-.367-.693-.899-1.04-1.554-1.042q-.315 0-.667.105c-.458.146-2.12.39-3.712.537-1.591.171-3.327.44-3.857.633-.53.17-1.808.34-2.82.342-1.013.002-1.905.1-1.977.22s-.627.29-1.23.364a4.4 4.4 0 0 1-.662.064c-.477 0-.795-.16-1.436-.591-1.207-.794-3.765-1.851-5.164-2.114-.506-.096-1.157-.312-1.423-.48-.265-.192-.697-.335-.962-.336h-.009c-.403 0-.328-.148.439-.869.722-.7.89-1.014.889-1.785 0-.507-.098-.989-.219-1.06-.12-.097-.387-.651-.605-1.278-.362-1.038-.386-1.125.107-1.648h.002c1 .348 1.927.532 2.613.534.462 0 .814-.081 1.006-.251.143-.13.273-.325.284-.418.038-.302-.322-.97-1.158-2.14a84 84 0 0 1-1.195-1.722h-.001c.037-.215.085-.45.14-.675.216-.94.168-1.182-.486-2.555-.322-.673-.829-1.433-1.354-2.09h-.001a8 8 0 0 1-.074-.536c-.216-2.592-1.34-4.832-3.244-6.41-.63-.532-2.126-1.404-2.773-1.633-.353-.128-.548-.258-.64-.46-.16-.315-.941-.824-2.277-1.455-.917-.43-1.394-.604-1.77-.605-.126 0-.24.02-.357.056-.108.032-.22.05-.366.049-.251 0-.602-.052-1.203-.16-.59-.102-.902-.15-1.133-.151z"/></svg>