<?xml version='1.0' encoding='utf-8'?>
<svg xmlns="http://www.w3.org/2000/svg" version="1.1" viewBox="0 0 600 976"> <g> <path d="m342.87 307.78c0.03137 6e-5 0.06384 0.00143 0.09708 0.00418 0.10519 0.00253 0.16238 0.05185 0.12472 0.09994-0.0506 0.06122-0.24838 0.10054-0.40228 0.10022-0.11069-2.4e-4 -0.19864-0.02098-0.19269-0.06881 0.01013-0.08115 0.16785-0.13597 0.37317-0.13553zm-24.402 30.671q1.7e-4 0 3e-4 0l0.0288 4.2e-4q2.2589 0.07593 3.8326 1.6721 0.58502 0.62716 0.94494 1.3415h-0.00128c0.27271 0.74973 0.35364 1.221 0.43518 2.0865 0.06265 0.57625 0.02783 1.2347-0.0802 1.8996h-0.00125q-0.38855 1.3173-1.4488 2.3804-1.6445 1.5256-3.8449 1.521-0.00848 0-0.01703-3e-5 -2.2594-0.06985-3.8377-1.6628-1.5314-1.6337-1.5299-3.8647 0.04736-2.2166 1.6624-3.8437 1.6463-1.535 3.8569-1.5304zm70.171 18.077c0.98956 0.00208 1.6964 0.18332 2.5085 0.56393 0.6747 0.336 1.4213 0.59975 1.6396 0.60022h9.7e-4 0.00123c0.21807 4.6e-4 0.81993 0.21613 1.3498 0.45593 0.53088 0.2644 1.3511 0.5283 1.8576 0.62397 0.9165 0.16729 3.0653 1.9482 3.0663 2.551 2.3e-4 0.14462-0.21613 0.53078-0.48083 0.86874-0.33692 0.43458-0.48072 0.98942-0.47924 1.9056 0.0016 1.0126-0.1183 1.3987-0.57564 1.9058-0.31292 0.33807-0.62551 0.86898-0.69738 1.1585-0.57488 2.4121-0.88575 4.0281-0.88474 4.6791 6.4e-4 0.40991-0.11929 0.7959-0.26394 0.84435-0.24094 0.0727-0.5049 0.89302-0.9355 3.0155-0.11962 0.57887-0.4317 1.4715-0.7201 2.0507-0.26436 0.555-0.4803 1.2064-0.47993 1.4474 3.9e-4 0.24118-0.0958 0.43418-0.21634 0.43438-0.21701 3.5e-4 -0.5047 1.0618-0.599 2.388-0.0622 0.78714-0.4859 1.1872-1.0917 1.186-0.54485-0.0011-1.2371-0.32707-1.9461-0.9882-0.45885-0.43335-1.2312-0.93845-1.6896-1.1065-1.0616-0.43231-1.4481-0.8898-1.4495-1.7578-5.6e-4 -0.36145-0.0974-0.67453-0.21785-0.67481h-2.5e-4 -1.7e-4c-0.12061-2.4e-4 -0.28986-0.40974-0.4112-0.91559-0.24295-1.157-0.29629-19.506-0.05649-20.35 0.11979-0.50654 0.33652-0.67567 0.96332-0.74897 0.7132-0.09137 1.2982-0.13788 1.8082-0.13681zm-17.622 136.09c0.01282 0.00192 0.02728 0.04382 0.04358 0.13101 0.09741 0.60269 0.31579 1.4704 0.46118 1.9282 0.14546 0.48212 0.26898 2.3625 0.24804 4.3398 0.00419 2.6352-0.12835 4.1793-0.29846 4.1789-0.07892-1.5e-4 -0.16598-0.33286-0.25116-1.0435-0.22711-1.7936-0.38018-9.5092-0.20492-9.5345zm-29.625-185.76c-0.20994-4.3e-4 -0.3519 0.03955-0.57288 0.11767-0.66241 0.2341-1.2325 0.57466-1.2533 0.74094-0.0181 0.14552 0.28076 0.2883 0.74578 0.36734 0.24945 0.03108 0.19361 0.05578-0.25842 0.1261-0.69757 0.09253-1.9509 0.49572-2.7601 0.89093-0.8078 0.38488-3.3661 2.5358-3.8179 3.1971-0.38948 0.58474-1.0046 1.9646-1.207 2.7415-0.52399 2.0033-1.0729 3.3597-1.7324 4.3329-0.14151 0.20397-0.79471 0.78754-1.4583 1.2853-2.5868 1.9574-3.1466 2.4681-3.4321 3.0657-0.2427 0.508-0.13206 1.0601 0.26692 1.4158 0.5326 0.45966 1.6175 0.68516 2.9164 0.68786 0.509 0.00107 1.0509-0.03207 1.6053-0.09875h0.00136c0.07162 0.67181 0.25348 1.3078 0.55322 1.823 0.43518 0.72267 0.77478 1.976 0.8974 3.3019 0.172 2.001 1.2139 5.2063 2.2051 6.8443 0.55609 0.93947 1.0397 1.7826 1.0398 1.8791 4.4e-4 0.26519 1.7872 1.8538 2.5353 2.2142 0.38617 0.2164 1.1102 0.6734 1.5689 1.0343 0.45868 0.36097 1.038 0.7217 1.2792 0.79365 0.21717 0.09613 0.41028 0.26459 0.4105 0.38513 3.3e-4 0.19288-3.3484 1.9584-3.7102 1.959-0.07232 1.3e-4 -0.72293 0.26639-1.4458 0.6051-0.72283 0.33875-1.4216 0.60507-1.5422 0.60526-0.38581 5.7e-4 -0.91467 1.0141-1.2501 2.3649-0.3595 1.375-0.11524 3.3277 0.5863 4.7733 0.26611 0.53 0.29126 1.2051 0.14935 2.9173-0.09454 1.2058-0.26159 2.3152-0.33371 2.46-0.09622 0.14484-0.16629 1.5676-0.16376 3.1589 0.02775 2.2665-0.04354 2.9418-0.30862 3.0386-0.19278 0.07263-0.48144 0.48297-0.62546 0.89313-0.16812 0.4343-0.38424 0.9892-0.48025 1.2546-0.67243 1.713-1.4393 4.656-1.4379 5.5722 5.5e-4 0.35101-0.0332 0.53174-0.2032 0.53138-0.1804-3.8e-4 -0.5142-0.20466-1.1231-0.62574-1.0621-0.72162-1.9325-2.1911-2.6354-4.5047-0.26645-0.79529-0.6542-2.0003-0.89645-2.6991-0.29053-0.77115-0.38825-1.5425-0.29267-2.1214 0.09552-0.55473-0.0505-1.4226-0.36566-2.4829-0.29077-0.8917-0.63019-2.0485-0.75155-2.5788-0.194-0.6748-0.55652-1.2047-1.2808-1.7822-0.5794-0.45727-1.3522-1.2276-1.7629-1.7333-0.38659-0.50575-0.84533-0.91493-0.99008-0.93882-7.5e-4 0-0.00155 0-0.00235-3e-5 -0.50488-0.00105-0.79464-0.60365-1.0136-2.0238-0.07138-0.42407-0.11695-0.7176-0.13177-0.9174l-0.00125-4e-5q2.819-0.19492 4.9249-2.1632 2.3087-2.2827 2.4139-5.5157 0.0169-3.2354-2.1978-5.6021-2.2678-2.2915-5.508-2.4004l-0.00515-1e-4q-3.256 0.00434-5.5681 2.1752-2.3132 2.2795-2.4237 5.5123-0.02212 3.2353 2.1879 5.6053 1.7511 1.7758 4.0872 2.2465h-0.00119c0.21045 0.31751 0.24533 0.70481 0.24676 1.6175 0.00177 1.1091-0.11788 1.6639-0.47883 2.1467-0.26463 0.36209-0.62462 1.4237-0.81603 2.3643-0.31103 1.5195-0.38183 2.5082-0.35254 5.7392 6.2e-4 0.3858 0.09784 0.89203 0.24292 1.1329 0.33815 0.6496 2.0236 1.6578 2.7486 1.6593h0.00286 0.00781c0.52383 0.00109 0.64697 0.203 1.3464 2.4573 0.41205 1.3737 1.2599 3.8318 1.8653 5.4705 1.0656 2.94 1.0899 3.0364 0.82675 4.3629-0.38287 1.8573-0.35809 2.2672 0.29621 4.3397 0.99173 3.199 1.764 4.3329 2.9895 4.3354h0.00735 0.00373c0.70007 0.00148 1.9746 0.72092 1.9752 1.106 0.0019 1.1798 4.1174 3.6996 6.0498 3.7036h0.00818c0.91626-0.00146 1.1331-0.14649 2.9626-2.0061 3.0092-2.9946 4.6923-6.0113 5.9148-10.546 0.1678-0.60315 0.3837-1.3028 0.4797-1.5681 0.12017-0.26538 0.50433-1.2546 0.86456-2.1956l0.67239-1.713 0.99025 1.0111c0.53127 0.5296 1.4972 1.4202 2.1731 1.9255 0.65187 0.52943 1.4003 1.131 1.6417 1.3236 0.26553 0.1925 0.94166 0.79416 1.5452 1.2996 1.0865 0.96278 1.0865 0.96278 0.96814 2.2891-0.11843 1.3505-0.28564 2.3394-1.0033 5.9332-0.1912 1.0612-0.5735 3.232-0.81213 4.8237-0.26269 1.5918-0.64523 3.6419-0.86071 4.5826-0.47901 2.0262-1.0494 7.2594-1.0695 9.8153 0.0022 1.3502 0.1481 2.1457 0.51117 3.0132 0.45978 1.0602 0.50931 1.8799 0.73877 9.716 0.15219 4.7016 0.35316 9.7407 0.47601 11.211 0.1228 1.4465 0.29565 3.9538 0.39459 5.545 0.1731 2.9121 0.43896 3.7338 1.2314 3.7354h0.00427c5.5e-4 0 0.00107 3e-5 0.0016 3e-5 0.16808 3.7e-4 0.312 0.09644 0.31224 0.24064 1.9e-4 0.1202 0.14423 0.24011 0.33628 0.24053h0.00161 4.3e-4c0.19299 4e-4 0.50702 0.53022 0.72504 1.2768 0.3393 1.0845 1.1383 3.1569 1.8403 4.8677 0.12097 0.26504 0.26675 0.96406 0.34006 1.5667 0.39114 3.375 1.8494 10.63 2.3092 11.666 0.77423 1.6625 0.9455 3.2296 0.97894 9.0645 0.00452 2.8452 0.1297 5.7626 0.27551 6.4857 0.12165 0.69906 0.24415 1.8803 0.24527 2.6037 0.00208 1.3021 0.12428 2.3146 1.0008 7.666 0.26778 1.6151 0.58468 3.7847 0.73105 4.8213 0.12219 1.0608 0.34158 2.5312 0.46325 3.2544 1.5086 8.5333 1.783 14.344 0.8725 17.962-0.19162 0.79598-0.59882 2.4845-0.86206 3.7387l-0.50269 2.2914-2.6722 2.7049c-1.4925 1.4972-2.9366 3.1873-3.225 3.7665-0.7692 1.4961-0.959 3.4495-0.45097 4.5097 0.9631 2.0141 1.3026 2.4054 2.3041 2.4074h0.01446 0.00287c0.34107 7.5e-4 1.4713 0.21545 2.5297 0.47825 1.493 0.38137 2.4577 0.46206 6.2284 0.4699 0.49368 0.00107 1.0355 8e-4 1.6328-1.5e-4 3.2551-0.00515 6.269-0.1305 6.6786-0.25171 0.81946-0.21824 1.4937-0.77404 1.4931-1.1839-2.2e-4 -0.14464 0.2635-1.0854 0.59945-2.0987 0.336-1.0132 0.59921-2.2674 0.59839-2.7738-7.9e-4 -0.50634 0.11902-0.98874 0.2395-1.0613 0.1445-0.07257 0.24042-0.4102 0.23993-0.7237-4.9e-4 -0.31347 0.07135-0.62707 0.1918-0.6754 0.00257-0.00196 0.0051-0.0029 0.0076-0.0029 0.09387 2e-4 0.18799 1.3 0.21405 2.9201 0.05084 1.6636 0.12546 3.062 0.17378 3.1342 0.02358 0.01573 0.08812 0.02367 0.18276 0.02385 0.19584 3.5e-4 0.52054-0.03229 0.87804-0.09785l0.94017-0.1462 0.1137-4.268c0.11506-3.4964 0.20981-4.5334 0.642-5.6914 0.26401-0.77206 0.64853-1.5924 0.84103-1.8098 1.0591-1.159 1.7504-6.1755 1.0967-7.8623-0.14528-0.36145-0.8946-1.5417-1.7162-2.6495l-1.45-2.0232 0.11639-2.6042c0.04602-1.4227 0.21166-3.376 0.33081-4.2925 0.11902-0.94055 0.40455-3.3763 0.6424-5.4263 0.21375-2.0498 0.49908-4.5579 0.64218-5.5467 0.11893-0.98878 0.28197-4.63 0.34882-8.078 0.13315-7.2339 0.1332-7.2097-2.1206-14.367-0.89661-2.8197-1.4314-5.4952-1.677-8.34-0.3434-3.6646-0.34616-5.3765-0.03265-5.377 0.14468-2.4e-4 0.24025-0.53084 0.23925-1.1578-0.0028-1.7601 1.1726-5.6199 1.967-6.4169 0.21668-0.21738 0.65039-0.38686 0.98801-0.38736 1.0609-0.00174 1.3252-0.60492 2.3304-5.3083 0.09571-0.45834 0.35938-1.4714 0.57508-2.2434 1.3666-4.921 4.4574-17.223 4.4566-17.778-8e-4 -0.50635 1.1271-3.908 4.7754-14.402l2.2083-6.345-0.67709-1.2286c-0.36279-0.69866-0.89447-1.4935-1.1843-1.8065-0.26571-0.28895-0.70084-0.9875-0.96689-1.5176-0.24197-0.55398-0.53183-0.98739-0.62841-0.98764h-1.4e-4 -4.4e-4c-0.1203-2.4e-4 -0.19276-0.1687-0.19306-0.3854-3.6e-4 -0.217-0.19375-0.5543-0.41107-0.72275-0.74833-0.57745 0.21537-1.0612 2.1202-1.0643 2.7729-0.00434 2.8933-0.0528 4.8189-2.1536 0.24067-0.28974 0.45707-0.65174 0.45683-0.8205-2.5e-4 -0.14466 0.21612-0.55493 0.45672-0.86878 0.284-0.37988 0.41291-0.51072 1.1136-0.50924 0.36804 7.6e-4 0.89383 0.03805 1.6827 0.09492 0.46262 0.0292 0.86358 0.04567 1.2102 0.04637 1.6048 0.00336 2.0445-0.32947 2.043-1.2812-4.5e-4 -0.28935 0.11966-0.55485 0.24022-0.55505 0.1447-2e-4 0.24025-0.55493 0.23915-1.23-0.00189-1.2057 0.71665-4.2208 1.1975-5.0896 0.14435-0.24134 0.24021-0.62727 0.23975-0.89256-4.3e-4 -0.2652 0.14367-0.62714 0.31219-0.79614 0.28883-0.28983 0.79157-2.6054 1.7231-8.1526 0.28673-1.6401 0.35863-1.9054 0.71974-2.2677 0.38526-0.3623 0.72071-1.6648 1.0787-4.0043 0.09534-0.72354 0.31051-1.8331 0.47833-2.4602 0.45523-1.8091 0.21075-3.9547-0.63535-5.3037-0.38665-0.62601-0.82125-1.1556-0.9661-1.1558h-1.7e-4 -3.7e-4c-0.14514-3e-4 -0.67584-0.3609-1.2065-0.79376-0.50708-0.4332-1.3278-0.98651-1.7863-1.2028-0.45846-0.24042-1.0135-0.5047-1.2065-0.625-1.0819-0.57478-1.4692-0.7439-1.8058-0.74458h-0.00377-0.00166c-0.19226-4.2e-4 -0.36017-0.12032-0.36041-0.24053-1.8e-4 -0.14417-0.16793-0.24014-0.35999-0.24054h-0.00207-0.00171c-0.48413-0.00101-2.049-0.76863-2.0494-1.0095-1.8e-4 -0.09607-0.16788-0.19192-0.35989-0.19232h-0.00208-0.00174c-0.19364-4.3e-4 -0.6022-0.12012-0.91494-0.28787-0.28965-0.14426-0.69983-0.33646-0.8929-0.43262-0.19298-0.09613-0.89284-0.4567-1.5203-0.79326-0.85732-0.49828-1.4793-0.6448-2.515-0.64696h-0.04196c-0.02627 6e-5 -0.05206 6e-5 -0.07745 0-1.1638-0.00244-1.4362-0.10992-2.2869-0.84014-0.55471-0.45676-1.1815-0.84122-1.3992-0.84168h-6.6e-4 -0.00134c-0.21762-4.9e-4 -0.6989-0.19235-1.0362-0.45648-0.3621-0.2406-1.9548-1.0819-3.5475-1.8751-3.2818-1.6103-3.9817-2.019-3.9822-2.3084-1.8e-4 -0.12058-0.31414-0.45768-0.67634-0.77054-0.36214-0.31287-0.8211-0.8185-0.9904-1.1558-0.36634-0.69337-0.89808-1.0406-1.5534-1.042-0.2099-4.3e-4 -0.43255 0.03462-0.6665 0.1052-0.45789 0.14542-2.1212 0.38919-3.7124 0.53637-1.5911 0.1713-3.3268 0.4393-3.8569 0.63305-0.53024 0.1696-1.8079 0.34043-2.8206 0.34205-1.0127 0.00155-1.9047 0.09945-1.9768 0.22012-0.0722 0.12067-0.6265 0.29035-1.2292 0.36368-0.26477 0.04117-0.47607 0.06503-0.66284 0.06465-0.47656-0.00102-0.79418-0.1598-1.4358-0.5918-1.2068-0.79374-3.7644-1.8507-5.1633-2.1136-0.50652-0.09564-1.1579-0.31164-1.4234-0.47997-0.26459-0.1918-0.69678-0.33546-0.96225-0.336h-0.00277-0.00623c-0.4029-8.6e-4 -0.32757-0.14783 0.4389-0.86878 0.72223-0.70038 0.8905-1.0141 0.88928-1.7857-7.9e-4 -0.50633-0.09799-0.9884-0.21869-1.0605-0.12073-0.09625-0.38684-0.65042-0.60486-1.277-0.3629-1.0382-0.38598-1.1252 0.10682-1.6478h0.00158c0.99994 0.34778 1.9273 0.53205 2.6135 0.53345 0.46124 9.8e-4 0.81354-0.08069 1.0055-0.25079 0.14288-0.13001 0.27271-0.32483 0.28436-0.4184 0.03752-0.30138-0.32258-0.96893-1.1583-2.139-0.38409-0.53457-0.87628-1.252-1.1948-1.7227h-0.00159c0.03703-0.21527 0.08545-0.45056 0.14123-0.67499 0.21546-0.94067 0.16688-1.1817-0.48632-2.5551-0.32245-0.67236-0.82908-1.4323-1.3541-2.0901h-0.00162c-0.035-0.20997-0.06109-0.39749-0.07418-0.53574-0.21538-2.5915-1.3399-4.8319-3.2437-6.4095-0.63019-0.53235-2.1258-1.4047-2.7727-1.633-0.3534-0.12848-0.54828-0.2583-0.63935-0.45959-0.16118-0.31562-0.94208-0.82453-2.2777-1.4553-0.91729-0.42999-1.3942-0.60443-1.7692-0.60523-0.12648-2.4e-4 -0.2413 0.01924-0.35758 0.0553-0.1086 0.0329-0.2209 0.04975-0.36642 0.04945-0.25122-4.9e-4 -0.60148-0.05215-1.2028-0.1605-0.58951-0.10105-0.90213-0.1503-1.1327-0.15078z"/> </g> </svg>